<?xml version="1.0" encoding="UTF-8" standalone="no"?>
<!-- Created with Inkscape (http://www.inkscape.org/) -->

<svg
   xmlns:dc="http://purl.org/dc/elements/1.1/"
   xmlns:cc="http://creativecommons.org/ns#"
   xmlns:rdf="http://www.w3.org/1999/02/22-rdf-syntax-ns#"
   xmlns:svg="http://www.w3.org/2000/svg"
   xmlns="http://www.w3.org/2000/svg"
   xmlns:sodipodi="http://sodipodi.sourceforge.net/DTD/sodipodi-0.dtd"
   xmlns:inkscape="http://www.inkscape.org/namespaces/inkscape"
   width="200"
   height="150"
   viewBox="0 0 200 150"
   id="svg4393"
   version="1.1"
   inkscape:version="0.91 r13725"
   sodipodi:docname="right-first-arrow.svg">
  <defs
     id="defs4395" />
  <sodipodi:namedview
     id="base"
     pagecolor="#ffffff"
     bordercolor="#666666"
     borderopacity="1.0"
     inkscape:pageopacity="0.0"
     inkscape:pageshadow="2"
     inkscape:zoom="3.959798"
     inkscape:cx="114.6311"
     inkscape:cy="77.034787"
     inkscape:document-units="px"
     inkscape:current-layer="layer1"
     showgrid="false"
     units="px"
     inkscape:window-width="1920"
     inkscape:window-height="1016"
     inkscape:window-x="0"
     inkscape:window-y="27"
     inkscape:window-maximized="1" />
  <metadata
     id="metadata4398">
    <rdf:RDF>
      <cc:Work
         rdf:about="">
        <dc:format>image/svg+xml</dc:format>
        <dc:type
           rdf:resource="http://purl.org/dc/dcmitype/StillImage" />
        <dc:title></dc:title>
      </cc:Work>
    </rdf:RDF>
  </metadata>
  <g
     inkscape:label="Calque 1"
     inkscape:groupmode="layer"
     id="layer1"
     transform="translate(0,-902.36216)">
    <path
       style="color:#000000;clip-rule:nonzero;display:inline;overflow:visible;visibility:visible;opacity:1;isolation:auto;mix-blend-mode:normal;color-interpolation:sRGB;color-interpolation-filters:linearRGB;solid-color:#000000;solid-opacity:1;fill:#000000;fill-opacity:1;fill-rule:evenodd;stroke:#000000;stroke-width:9.64326191;stroke-linecap:round;stroke-linejoin:round;stroke-miterlimit:4;stroke-dasharray:none;stroke-dashoffset:0;stroke-opacity:1;color-rendering:auto;image-rendering:auto;shape-rendering:auto;text-rendering:auto;enable-background:accumulate"
       d="m 6.2871653,1044.4675 c 4.6033997,-4.1231 4.2400297,-26.184 4.8705797,-33.12 1.50248,-16.52726 8.0491,-37.88945 6.08823,-53.57641 -0.74976,-5.99807 -4.54975,-10.77717 -5.60117,-16.56007 -1.9411997,-10.6765 0.24352,-23.4719 0.24352,-33.8506 0,-1.017 1.81629,0.9221 2.67883,1.4613 2.84892,1.7805 5.57829,3.0878 8.27999,5.1141 8.80745,6.6055 18.46,12.8951 28.00585,18.2646 9.2333,5.1938 18.99638,10.0721 28.97997,13.6377 4.12974,1.4749 8.72272,1.9261 12.66351,3.8965 2.43252,1.2162 18.231275,9.56929 18.995275,10.71529 2.63392,3.95088 8.51647,9.77092 12.90705,12.90706 3.23686,2.31204 14.06792,6.70528 15.34233,9.2541 0.10724,0.21447 -16.04096,10.38691 -17.77763,11.6894 -6.09303,4.56977 -11.17286,10.72043 -17.53409,14.85523 -7.060285,4.5892 -14.466425,8.5825 -21.674095,12.9071 -7.97429,4.7846 -16.27625,3.8451 -24.64149,8.0277 -2.22173,1.1109 -6.13599,3.3476 -8.33405,4.4466 -4.67336,2.3367 -25.02178,14.5425 -29.85498,12.6092 -3.93642,-1.5746 -8.6766,-0.4831 -12.6635097,-2.1918 -1.64472,-0.7049 -1.02192,-0.487 0.48706,-0.487"
       id="path4401"
       inkscape:connector-curvature="0"
       sodipodi:nodetypes="csssscssscssssssssssc" />
    <path
       style="color:#000000;clip-rule:nonzero;display:inline;overflow:visible;visibility:visible;opacity:1;isolation:auto;mix-blend-mode:normal;color-interpolation:sRGB;color-interpolation-filters:linearRGB;solid-color:#000000;solid-opacity:1;fill:#000000;fill-opacity:1;fill-rule:evenodd;stroke:#000000;stroke-width:9.64326191;stroke-linecap:round;stroke-linejoin:round;stroke-miterlimit:4;stroke-dasharray:none;stroke-dashoffset:0;stroke-opacity:1;color-rendering:auto;image-rendering:auto;shape-rendering:auto;text-rendering:auto;enable-background:accumulate"
       d="m 61.755095,1044.6112 c 4.6034,-4.123 4.24003,-26.1839 4.87058,-33.1199 1.50248,-16.5273 8.0491,-37.88949 6.08823,-53.57645 -0.74976,-5.99813 -4.54975,-10.77723 -5.60117,-16.56013 -1.9412,-10.6764 0.24352,-23.4718 0.24352,-33.8505 0,-1.017 1.81629,0.9221 2.67883,1.4613 2.84892,1.7805 5.57829,3.0878 8.27999,5.1141 8.80745,6.6055 18.46,12.8951 28.005855,18.2646 9.2333,5.1938 18.99638,10.072 28.97997,13.6376 4.12974,1.4749 8.72272,1.9261 12.66351,3.8965 2.43252,1.2162 18.23127,9.56935 18.99528,10.71535 2.63391,3.95088 8.51646,9.77092 12.90704,12.90706 3.23686,2.31204 14.06792,6.70528 15.34233,9.2541 0.10724,0.21447 -16.04096,10.38691 -17.77762,11.6894 -6.09303,4.56977 -11.17287,10.72047 -17.5341,14.85527 -7.06028,4.5892 -14.46642,8.5824 -21.67409,12.907 -7.97429,4.7846 -15.01356,10.9162 -23.3788,15.0989 -2.22173,1.1108 -4.62076,1.5797 -6.81882,2.6788 -4.67336,2.3367 -27.799705,9.2391 -32.632905,7.3058 -3.93642,-1.5745 -8.6766,-0.483 -12.66351,-2.1917 -1.64472,-0.7049 -1.02192,-0.4871 0.48706,-0.4871"
       id="path4401-8"
       inkscape:connector-curvature="0" />
  </g>
</svg>
